# xmcd
#
# Track frame offsets: 
#        150
#        20625
#        40050
#        59625
#        84375
#        97575
#        113325
#        134850
#        156525
#        183525
#        204000
#        223305
#
# Disc length: 3289 seconds
#
# Revision: 0
# Processed by: cddbd v1.5.2PL0 Copyright (c) Steve Scherf et al.
# Submitted via: ExactAudioCopy v0.99pb4
#
DISCID=a60cd70c
DTITLE=鄭秋玄 - 厝邊 by EndoR
DYEAR=2007
DGENRE=Folk
TTITLE0=厝邊
TTITLE1=揕頭ㄟ稻穗
TTITLE2=妳知影無 
TTITLE3=思鄉
TTITLE4=嫷嫷ㄟ紅田嬰
TTITLE5=酸雨在落
TTITLE6=魚仔ㄟ目屎
TTITLE7=放互袂記
TTITLE8=暗暝\
TTITLE9=攏嘛是行作夥
TTITLE10=欲飛
TTITLE11=綴著毛毛雨一直飛
EXTD=
EXTT0=
EXTT1=
EXTT2=
EXTT3=
EXTT4=
EXTT5=
EXTT6=
EXTT7=
EXTT8=
EXTT9=
EXTT10=
EXTT11=
PLAYORDER=
